<svg width="31" height="31" viewBox="0 0 31 31" fill="none" xmlns="http://www.w3.org/2000/svg">
<path d="M15.5 0.916504C7.45002 0.916504 0.916687 7.44984 0.916687 15.4998C0.916687 23.5498 7.45002 30.0832 15.5 30.0832C23.55 30.0832 30.0834 23.5498 30.0834 15.4998C30.0834 7.44984 23.55 0.916504 15.5 0.916504ZM15.5 5.2915C17.9209 5.2915 19.875 7.24567 19.875 9.6665C19.875 12.0873 17.9209 14.0415 15.5 14.0415C13.0792 14.0415 11.125 12.0873 11.125 9.6665C11.125 7.24567 13.0792 5.2915 15.5 5.2915ZM15.5 25.9998C13.7673 25.9998 12.0615 25.5711 10.5348 24.7517C9.00806 23.9324 7.70782 22.7479 6.75002 21.304C6.79377 18.4019 12.5834 16.8123 15.5 16.8123C18.4021 16.8123 24.2063 18.4019 24.25 21.304C23.2922 22.7479 21.992 23.9324 20.4652 24.7517C18.9385 25.5711 17.2327 25.9998 15.5 25.9998Z" fill="white"/>
</svg>
