<svg width="32" height="24" viewBox="0 0 32 24" fill="none" xmlns="http://www.w3.org/2000/svg">
<path d="M29.3333 0H2.66667C1.2 0 0 1.2 0 2.66667V21.3333C0 22.8 1.2 24 2.66667 24H29.3333C30.8 24 31.9867 22.8 31.9867 21.3333L32 2.66667C32 1.2 30.8 0 29.3333 0ZM29.3333 21.3333H2.66667V2.66667H29.3333V21.3333ZM25.3467 19.9867L28 17.3333L25.9867 14.6667H23.8C23.5067 13.8267 23.3333 12.9333 23.3333 12C23.3333 11.0667 23.5067 10.1733 23.8 9.33333H25.9867L28 6.66667L25.3467 4.01333C23.5775 5.33444 22.2971 7.20571 21.7067 9.33333C21.4667 10.1867 21.3333 11.08 21.3333 12C21.3333 12.92 21.4667 13.8133 21.7067 14.6667C22.3006 16.7927 23.5803 18.6629 25.3467 19.9867ZM12 12C14.2 12 16 10.2 16 8C16 5.8 14.2 4 12 4C9.8 4 8 5.8 8 8C8 10.2 9.8 12 12 12ZM12 6.66667C12.7333 6.66667 13.3333 7.26667 13.3333 8C13.3333 8.73333 12.7333 9.33333 12 9.33333C11.2667 9.33333 10.6667 8.73333 10.6667 8C10.6667 7.26667 11.2667 6.66667 12 6.66667ZM20 18.12C20 14.7867 14.7067 13.3467 12 13.3467C9.29333 13.3467 4 14.7867 4 18.12V20H20V18.12ZM7.30667 17.3333C8.29333 16.6667 10.2667 16 12 16C13.7333 16 15.6933 16.6533 16.6933 17.3333H7.30667Z" fill="white"/>
</svg>
