<svg width="33" height="33" viewBox="0 0 33 33" fill="none" xmlns="http://www.w3.org/2000/svg">
<path d="M16.5 0C14.3423 0 12.6923 1.65 12.6923 3.80769V11.4231C12.6923 13.5808 14.3423 15.2308 16.5 15.2308H24.1154L29.1923 20.3077V15.2308C31.35 15.2308 33 13.5808 33 11.4231V3.80769C33 1.65 31.35 0 29.1923 0H16.5ZM21.8155 3.80769H23.9961L26.1385 11.4231H24.2347L23.7181 9.51923H21.8143L21.3396 11.4231H19.6731L21.8155 3.80769ZM22.8462 5.07692C22.7192 5.58462 22.5771 6.204 22.4489 6.58477L22.0935 8.25H23.6001L23.2422 6.5835C22.9896 6.204 22.8462 5.58462 22.8462 5.07692ZM3.80769 12.6923C1.65 12.6923 0 14.3423 0 16.5V24.1154C0 26.2731 1.65 27.9231 3.80769 27.9231V33L8.88461 27.9231H16.5C18.6577 27.9231 20.3077 26.2731 20.3077 24.1154V16.5H16.5C14.0885 16.5 12.177 14.85 11.5424 12.6923H3.80769ZM9.63854 16.3807C11.7962 16.3807 12.8116 18.1576 12.8116 20.1884C12.8116 21.9653 12.2011 23.0924 11.1857 23.6001C11.6934 23.8539 12.295 23.9885 12.9297 24.1154L12.455 25.3846C11.5665 25.1308 10.645 24.7348 9.75658 24.3527C9.62965 24.2258 9.40754 24.2347 9.28061 24.2347C7.75754 24.1078 6.34615 22.8462 6.34615 20.3077C6.34615 18.15 7.60777 16.3807 9.63854 16.3807ZM9.63854 17.7692C8.62315 17.7692 8.13069 18.9115 8.13069 20.3077C8.13069 21.8308 8.62315 22.8462 9.63854 22.8462C10.6539 22.8462 11.1845 21.7038 11.1845 20.3077C11.1845 18.9115 10.6539 17.7692 9.63854 17.7692Z" fill="white"/>
</svg>
