<svg width="55" height="35" viewBox="0 0 55 35" fill="none" xmlns="http://www.w3.org/2000/svg">
<path d="M28.2276 9.41513L12.3201 14.0001H28.8751C29.1071 14.0001 29.3297 14.0923 29.4938 14.2564C29.6579 14.4205 29.7501 14.6431 29.7501 14.8751V27.1251C29.7501 28.2855 29.2891 29.3983 28.4687 30.2187C27.6482 31.0392 26.5354 31.5001 25.3751 31.5001H9.62508C8.46476 31.5001 7.35196 31.0392 6.53149 30.2187C5.71102 29.3983 5.25008 28.2855 5.25008 27.1251V14.9994L4.80033 13.4366C4.64111 12.8845 4.59222 12.3064 4.65644 11.7354C4.72067 11.1644 4.89675 10.6116 5.17464 10.1086C5.45253 9.60567 5.82678 9.16237 6.27601 8.80407C6.72525 8.44576 7.24066 8.17946 7.79283 8.02038L22.9251 3.65763C23.4772 3.49841 24.0553 3.44952 24.6263 3.51374C25.1973 3.57797 25.7501 3.75405 26.2531 4.03194C26.756 4.30983 27.1993 4.68408 27.5576 5.13331C27.9159 5.58255 28.1822 6.09796 28.3413 6.65013L28.8261 8.33013C28.8582 8.44067 28.8682 8.55646 28.8555 8.67086C28.8427 8.78526 28.8076 8.89603 28.752 8.99682C28.6964 9.09761 28.6214 9.18644 28.5315 9.25822C28.4415 9.33 28.3382 9.38333 28.2276 9.41513ZM6.72358 13.7901L7.78408 13.4839L10.3076 9.11763L8.27758 9.70388C7.60864 9.89595 7.04334 10.3458 6.70599 10.9545C6.36864 11.5633 6.28684 12.2811 6.47858 12.9501L6.72183 13.7901H6.72358ZM10.2078 12.7856L13.9196 11.7146L16.4431 7.34488L12.7261 8.41763C12.7144 8.44272 12.7016 8.46725 12.6876 8.49113L10.2078 12.7874V12.7856ZM20.0568 9.94713L22.5786 5.57563L18.8598 6.64838C18.8459 6.68018 18.8301 6.71115 18.8126 6.74113L16.3451 11.0181L20.0551 9.94888L20.0568 9.94713ZM24.7521 5.30613C24.7418 5.32754 24.7307 5.34856 24.7188 5.36913L22.4788 9.24713L26.9011 7.97313L26.6596 7.13313C26.5315 6.68719 26.2874 6.28317 25.9524 5.96224C25.6173 5.6413 25.2031 5.41491 24.7521 5.30613Z" fill="white"/>
<path d="M38.0945 2.75869L36.111 2.47041L35.2242 0.672757C35.2 0.623538 35.1602 0.583694 35.111 0.559476C34.9875 0.498538 34.8375 0.549319 34.7758 0.672757L33.8891 2.47041L31.9055 2.75869C31.8508 2.76651 31.8008 2.79229 31.7625 2.83135C31.7162 2.87892 31.6907 2.94291 31.6916 3.00927C31.6925 3.07563 31.7197 3.13893 31.7672 3.18526L33.2024 4.58448L32.8633 6.56026C32.8553 6.60622 32.8604 6.65349 32.878 6.6967C32.8955 6.73992 32.9248 6.77736 32.9626 6.80477C33.0003 6.83218 33.045 6.84847 33.0915 6.85178C33.138 6.8551 33.1845 6.84532 33.2258 6.82354L35 5.89073L36.7742 6.82354C36.8227 6.84932 36.8789 6.85791 36.9328 6.84854C37.0688 6.8251 37.1602 6.69619 37.1367 6.56026L36.7977 4.58448L38.2328 3.18526C38.2719 3.14698 38.2977 3.09698 38.3055 3.04229C38.3266 2.90557 38.2313 2.77901 38.0945 2.75869Z" fill="white"/>
<path d="M46.0945 2.75869L44.111 2.47041L43.2242 0.672757C43.2 0.623538 43.1602 0.583694 43.111 0.559476C42.9875 0.498538 42.8375 0.549319 42.7758 0.672757L41.8891 2.47041L39.9055 2.75869C39.8508 2.76651 39.8008 2.79229 39.7625 2.83135C39.7162 2.87892 39.6907 2.94291 39.6916 3.00927C39.6925 3.07563 39.7197 3.13893 39.7672 3.18526L41.2024 4.58448L40.8633 6.56026C40.8553 6.60622 40.8604 6.65349 40.878 6.6967C40.8955 6.73992 40.9248 6.77736 40.9626 6.80477C41.0003 6.83218 41.045 6.84847 41.0915 6.85178C41.138 6.8551 41.1845 6.84532 41.2258 6.82354L43 5.89073L44.7742 6.82354C44.8227 6.84932 44.8789 6.85791 44.9328 6.84854C45.0688 6.8251 45.1602 6.69619 45.1367 6.56026L44.7977 4.58448L46.2328 3.18526C46.2719 3.14698 46.2977 3.09698 46.3055 3.04229C46.3266 2.90557 46.2313 2.77901 46.0945 2.75869Z" fill="white"/>
<path d="M54.0945 2.75869L52.111 2.47041L51.2242 0.672757C51.2 0.623538 51.1602 0.583694 51.111 0.559476C50.9875 0.498538 50.8375 0.549319 50.7758 0.672757L49.8891 2.47041L47.9055 2.75869C47.8508 2.76651 47.8008 2.79229 47.7625 2.83135C47.7162 2.87892 47.6907 2.94291 47.6916 3.00927C47.6925 3.07563 47.7197 3.13893 47.7672 3.18526L49.2024 4.58448L48.8633 6.56026C48.8553 6.60622 48.8604 6.65349 48.878 6.6967C48.8955 6.73992 48.9248 6.77736 48.9626 6.80477C49.0003 6.83218 49.045 6.84847 49.0915 6.85178C49.138 6.8551 49.1845 6.84532 49.2258 6.82354L51 5.89073L52.7742 6.82354C52.8227 6.84932 52.8789 6.85791 52.9328 6.84854C53.0688 6.8251 53.1602 6.69619 53.1367 6.56026L52.7977 4.58448L54.2328 3.18526C54.2719 3.14698 54.2977 3.09698 54.3055 3.04229C54.3266 2.90557 54.2313 2.77901 54.0945 2.75869Z" fill="white"/>
</svg>
