<svg width="26" height="29" viewBox="0 0 26 29" fill="none" xmlns="http://www.w3.org/2000/svg">
<path d="M24.2276 6.41513L8.32008 11.0001H24.8751C25.1071 11.0001 25.3297 11.0923 25.4938 11.2564C25.6579 11.4205 25.7501 11.6431 25.7501 11.8751V24.1251C25.7501 25.2855 25.2891 26.3983 24.4687 27.2187C23.6482 28.0392 22.5354 28.5001 21.3751 28.5001H5.62508C4.46476 28.5001 3.35196 28.0392 2.53149 27.2187C1.71102 26.3983 1.25008 25.2855 1.25008 24.1251V11.9994L0.800331 10.4366C0.64111 9.8845 0.592216 9.30642 0.656441 8.7354C0.720666 8.16437 0.896751 7.61159 1.17464 7.10863C1.45253 6.60567 1.82678 6.16237 2.27601 5.80407C2.72525 5.44576 3.24066 5.17946 3.79283 5.02038L18.9251 0.65763C19.4772 0.49841 20.0553 0.449516 20.6263 0.513741C21.1973 0.577966 21.7501 0.754051 22.2531 1.03194C22.756 1.30983 23.1993 1.68408 23.5576 2.13331C23.9159 2.58255 24.1822 3.09796 24.3413 3.65013L24.8261 5.33013C24.8582 5.44067 24.8682 5.55646 24.8555 5.67086C24.8427 5.78526 24.8076 5.89603 24.752 5.99682C24.6964 6.09761 24.6214 6.18644 24.5315 6.25822C24.4415 6.33 24.3382 6.38333 24.2276 6.41513ZM2.72358 10.7901L3.78408 10.4839L6.30758 6.11763L4.27758 6.70388C3.60864 6.89595 3.04334 7.3458 2.70599 7.95455C2.36864 8.56329 2.28684 9.28109 2.47858 9.95013L2.72183 10.7901H2.72358ZM6.20783 9.78563L9.91958 8.71463L12.4431 4.34488L8.72608 5.41763C8.71441 5.44272 8.70156 5.46725 8.68758 5.49113L6.20783 9.78738V9.78563ZM16.0568 6.94713L18.5786 2.57563L14.8598 3.64838C14.8459 3.68018 14.8301 3.71115 14.8126 3.74113L12.3451 8.01813L16.0551 6.94888L16.0568 6.94713ZM20.7521 2.30613C20.7418 2.32754 20.7307 2.34856 20.7188 2.36913L18.4788 6.24713L22.9011 4.97313L22.6596 4.13313C22.5315 3.68719 22.2874 3.28317 21.9524 2.96224C21.6173 2.6413 21.2031 2.41491 20.7521 2.30613Z" fill="white"/>
</svg>
