<svg width="30" height="27" viewBox="0 0 30 27" fill="none" xmlns="http://www.w3.org/2000/svg">
<path d="M23.4375 20.625C23.8281 20.625 24.1943 20.6982 24.5361 20.8447C24.8779 20.9912 25.1758 21.1914 25.4297 21.4453C25.6836 21.6992 25.8838 21.9971 26.0303 22.3389C26.1768 22.6807 26.25 23.0469 26.25 23.4375C26.25 23.8281 26.1768 24.1943 26.0303 24.5361C25.8838 24.8779 25.6836 25.1758 25.4297 25.4297C25.1758 25.6836 24.8779 25.8838 24.5361 26.0303C24.1943 26.1768 23.8281 26.25 23.4375 26.25C23.0469 26.25 22.6807 26.1768 22.3389 26.0303C21.9971 25.8838 21.6992 25.6836 21.4453 25.4297C21.1914 25.1758 20.9912 24.8779 20.8447 24.5361C20.6982 24.1943 20.625 23.8281 20.625 23.4375C20.625 23.1348 20.6787 22.8223 20.7861 22.5H12.9639C13.0713 22.8223 13.125 23.1348 13.125 23.4375C13.125 23.8281 13.0518 24.1943 12.9053 24.5361C12.7588 24.8779 12.5586 25.1758 12.3047 25.4297C12.0508 25.6836 11.7529 25.8838 11.4111 26.0303C11.0693 26.1768 10.7031 26.25 10.3125 26.25C9.92188 26.25 9.55566 26.1768 9.21387 26.0303C8.87207 25.8838 8.57422 25.6836 8.32031 25.4297C8.06641 25.1758 7.86621 24.8779 7.71973 24.5361C7.57324 24.1943 7.5 23.8281 7.5 23.4375C7.5 22.9004 7.6416 22.4023 7.9248 21.9434C8.20801 21.4844 8.59863 21.1377 9.09668 20.9033L2.76855 1.875H0V0H4.11621L5.36133 3.75H30L25.6348 16.875H9.74121L10.9863 20.625H23.4375ZM5.99121 5.625L9.11133 15H24.2725L27.3926 5.625H5.99121ZM11.25 23.4375C11.25 23.1836 11.1572 22.9639 10.9717 22.7783C10.7861 22.5928 10.5664 22.5 10.3125 22.5C10.0586 22.5 9.83887 22.5928 9.65332 22.7783C9.46777 22.9639 9.375 23.1836 9.375 23.4375C9.375 23.6914 9.46777 23.9111 9.65332 24.0967C9.83887 24.2822 10.0586 24.375 10.3125 24.375C10.5664 24.375 10.7861 24.2822 10.9717 24.0967C11.1572 23.9111 11.25 23.6914 11.25 23.4375ZM23.4375 24.375C23.6914 24.375 23.9111 24.2822 24.0967 24.0967C24.2822 23.9111 24.375 23.6914 24.375 23.4375C24.375 23.1836 24.2822 22.9639 24.0967 22.7783C23.9111 22.5928 23.6914 22.5 23.4375 22.5C23.1836 22.5 22.9639 22.5928 22.7783 22.7783C22.5928 22.9639 22.5 23.1836 22.5 23.4375C22.5 23.6914 22.5928 23.9111 22.7783 24.0967C22.9639 24.2822 23.1836 24.375 23.4375 24.375Z" fill="#D02B87"/>
</svg>
